<svg width="102" height="60" viewBox="0 0 102 60" fill="none" xmlns="http://www.w3.org/2000/svg">
<path d="M26.6656 0C29.475 0 31.9454 0.217786 34.0767 0.653358C36.2564 1.04053 38.2909 1.69389 40.18 2.61343C40.5191 2.75862 40.737 2.92801 40.8339 3.1216C40.9308 3.26679 41.0034 3.62977 41.0519 4.21053L41.9964 13.2849C41.9964 13.4301 41.8511 13.5269 41.5605 13.5753C41.3183 13.6237 41.173 13.5511 41.1245 13.3575C38.6542 5.27526 33.665 1.23412 26.157 1.23412C22.3303 1.23412 18.9396 2.12946 15.9848 3.92015C13.03 5.71083 10.7292 8.25167 9.08228 11.5427C7.48379 14.8336 6.68455 18.6812 6.68455 23.0853C6.68455 27.3926 7.55645 31.2886 9.30025 34.7731C11.0925 38.2093 13.4902 40.9195 16.4934 42.9038C19.5451 44.8397 22.8873 45.8076 26.5202 45.8076C30.2985 45.8076 33.3986 44.8639 35.8205 42.9764C38.2424 41.0405 40.2042 38.0641 41.7058 34.0472C41.7542 33.9504 41.8753 33.902 42.0691 33.902C42.166 33.902 42.2629 33.9504 42.3597 34.0472C42.505 34.0956 42.5777 34.144 42.5777 34.1924L41.7785 42.4682C41.73 43.049 41.6574 43.412 41.5605 43.5572C41.4636 43.7024 41.2214 43.8717 40.8339 44.0653C38.412 45.1785 36.0869 45.9528 33.8587 46.3884C31.6305 46.8724 29.1844 47.1143 26.5202 47.1143C21.3857 47.1143 16.8083 46.1222 12.7878 44.1379C8.76742 42.1053 5.6189 39.2982 3.34228 35.7169C1.11409 32.1355 0 28.0218 0 23.3757C0 18.8264 1.13831 14.7852 3.41494 11.2523C5.74 7.6709 8.93696 4.91228 13.0058 2.97641C17.0747 0.992136 21.6279 0 26.6656 0Z" fill="#F8F7F3"/>
<path d="M60.1489 59.7096C60.1004 59.9032 59.834 60 59.3496 60C58.8652 60 58.5988 59.9032 58.5504 59.7096L40.3132 20.4356C39.3929 18.4029 38.521 17.0478 37.6975 16.3702C36.9225 15.6443 35.8084 15.2813 34.3552 15.2813C34.2099 15.2813 34.1372 15.1361 34.1372 14.8457C34.1372 14.5554 34.2099 14.4102 34.3552 14.4102L36.6076 14.4828C37.867 14.5796 39.0538 14.6279 40.1679 14.6279C42.3476 14.6279 44.5031 14.5796 46.6345 14.4828C47.3126 14.4344 48.2329 14.4102 49.3955 14.4102C49.5408 14.4102 49.6134 14.5554 49.6134 14.8457C49.6134 15.1361 49.5408 15.2813 49.3955 15.2813C47.9907 15.2813 46.9735 15.4265 46.3438 15.7169C45.7141 16.0073 45.3993 16.5638 45.3993 17.3866C45.3993 18.0641 45.7383 19.1531 46.4165 20.6534L61.82 53.539L59.059 57.5318L68.2139 34.3013L69.3765 35.971L60.1489 59.7096ZM101.782 14.4102C101.927 14.4102 102 14.5554 102 14.8457C102 15.1361 101.927 15.2813 101.782 15.2813C98.3429 15.2813 95.7272 17.4834 93.9349 21.8875L79.1127 59.7096C79.0642 59.9032 78.7978 60 78.3134 60C77.829 60 77.5626 59.9032 77.5142 59.7096L59.277 20.4356C58.4535 18.6449 57.6058 17.3382 56.7339 16.5154C55.9105 15.6927 54.8933 15.2813 53.6823 15.2813C53.537 15.2813 53.4643 15.1361 53.4643 14.8457C53.4643 14.5554 53.537 14.4102 53.6823 14.4102L55.9347 14.4828C57.0972 14.5796 58.1629 14.6279 59.1317 14.6279C60.9723 14.6279 62.6677 14.5796 64.2177 14.4828C64.7021 14.4344 65.356 14.4102 66.1795 14.4102C66.3248 14.4102 66.3975 14.5554 66.3975 14.8457C66.3975 15.1361 66.3248 15.2813 66.1795 15.2813C65.356 15.2813 64.7506 15.3781 64.3631 15.5717C64.024 15.7169 63.8544 16.0073 63.8544 16.4428C63.8544 17.1204 64.3631 18.5239 65.3803 20.6534L80.7838 53.539L78.0228 57.5318L92.0458 21.8875C92.4818 20.726 92.6998 19.7338 92.6998 18.9111C92.6998 17.7495 92.2638 16.8542 91.3919 16.225C90.5684 15.5959 89.3333 15.2813 87.6863 15.2813C87.541 15.2813 87.4684 15.1361 87.4684 14.8457C87.4684 14.5554 87.541 14.4102 87.6863 14.4102L90.8106 14.4828C92.4576 14.5796 93.9592 14.6279 95.3154 14.6279C96.3327 14.6279 97.471 14.5796 98.7304 14.4828L101.782 14.4102ZM73.5906 21.5245C74.2688 19.7822 74.6079 18.4513 74.6079 17.5318C74.6079 16.0315 73.7117 15.2813 71.9195 15.2813C71.8226 15.2813 71.7742 15.1361 71.7742 14.8457C71.7742 14.5554 71.8226 14.4102 71.9195 14.4102L73.3727 14.4828C74.3414 14.5796 75.4555 14.6279 76.715 14.6279C77.5869 14.6279 78.6525 14.5796 79.9119 14.4828L82.8182 14.4102C82.9151 14.4102 82.9636 14.5554 82.9636 14.8457C82.9636 15.1361 82.9151 15.2813 82.8182 15.2813C81.1713 15.2813 79.7424 15.7895 78.5314 16.8058C77.3204 17.8221 76.2548 19.516 75.3344 21.8875L69.7398 35.971L68.5772 34.3013L73.5906 21.5245Z" fill="#F8F7F3"/>
</svg>
