<svg width="47" height="47" viewBox="0 0 47 47" fill="none" xmlns="http://www.w3.org/2000/svg">
<path d="M22.0314 36.7188C22.0314 38.3442 20.7193 39.6562 19.0939 39.6562C17.4685 39.6562 16.1564 38.3442 16.1564 36.7188C16.1564 35.0933 17.4685 33.7812 19.0939 33.7812C20.7193 33.7812 22.0314 35.0933 22.0314 36.7188ZM31.8231 33.7812C30.1977 33.7812 28.8856 35.0933 28.8856 36.7188C28.8856 38.3442 30.1977 39.6562 31.8231 39.6562C33.4485 39.6562 34.7606 38.3442 34.7606 36.7188C34.7606 35.0933 33.4485 33.7812 31.8231 33.7812ZM40.5964 15.04L36.6797 30.7067C36.6008 31.0259 36.417 31.3094 36.1578 31.5118C35.8986 31.7142 35.579 31.8238 35.2502 31.8229H15.6668C14.9618 31.8229 14.3547 31.3138 14.2177 30.6088L10.5164 10.2812H7.8335C7.03058 10.2812 6.36475 9.61542 6.36475 8.8125C6.36475 8.00958 7.03058 7.34375 7.8335 7.34375H11.7502C12.4552 7.34375 13.0622 7.85292 13.1993 8.55792L14.0414 13.2188H39.1668C39.3895 13.2197 39.6091 13.271 39.8092 13.3688C40.0093 13.4666 40.1846 13.6084 40.3221 13.7836C40.4596 13.9588 40.5557 14.1628 40.6032 14.3804C40.6507 14.5979 40.6484 14.8235 40.5964 15.04ZM37.2868 16.1562H14.5702L16.881 28.8854H34.0947L37.2868 16.1562Z" fill="#F8F7F3"/>
</svg>
