<svg width="76" height="76" viewBox="0 0 76 76" fill="none" xmlns="http://www.w3.org/2000/svg">
<path d="M37.4845 64.239C54.4063 64.239 68.1267 50.5186 68.1267 33.5943C68.1267 16.6701 54.4063 2.94971 37.4845 2.94971C20.5602 2.94971 6.83984 16.6725 6.83984 33.5943C6.83984 50.5162 20.5602 64.239 37.4845 64.239Z" fill="#0F0F0F"/>
<path d="M31.6707 21.9165C31.5995 21.9165 31.5235 21.8975 31.4499 21.8928C30.1982 21.8215 29.8657 20.3965 30.0724 19.6128C31.3549 14.7013 30.7208 10.3384 28.6189 4.76191C28.1843 3.62191 29.9132 3.32504 30.6661 3.62904C31.3905 3.91879 32.0626 4.96379 32.3524 5.75466C34.0932 10.4619 34.5801 15.409 33.1432 20.6982C32.9532 21.4107 32.3832 21.9332 31.6707 21.9165Z" fill="#717171"/>
<path d="M35.5064 26.4694C35.28 26.4645 35.0579 26.4073 34.8573 26.3022C34.6568 26.1972 34.4833 26.047 34.3506 25.8636C34.2178 25.6802 34.1293 25.4686 34.0921 25.2453C34.0549 25.0219 34.0699 24.793 34.136 24.5765C35.7842 19.114 36.9907 10.184 33.167 3.47222C32.7632 2.76685 33.7892 2.30372 34.5991 2.37972C36.4516 2.54597 37.5322 5.31997 37.8885 6.55497C39.5605 12.3191 39.0142 20.026 36.9432 25.4244C36.7057 26.0609 36.1476 26.486 35.5064 26.4694Z" fill="#717171"/>
<path d="M39.4606 30.7752C38.4512 30.483 38.2612 29.153 38.494 28.3764C43.0896 12.9745 38.4631 3.51016 38.4275 3.40804C38.1425 2.64804 40.6362 1.61016 41.8665 4.69054C42.0446 5.13704 46.1463 15.4374 41.5221 29.628C41.3013 30.2812 40.5175 31.0839 39.4606 30.7728M13.3119 53.7319C12.8844 53.2284 12.35 52.4257 13.0269 51.9744C14.1479 51.2192 18.0025 49.996 21.0829 45.816C21.565 45.1629 22.3773 44.8613 23.085 45.265C23.7904 45.664 24.1062 46.6069 23.636 47.2672C19.8954 52.5397 15.3425 53.9647 15.1573 54.0692C14.9316 54.2022 13.7394 54.2354 13.3119 53.7319ZM15.7866 55.9217C15.4779 55.1498 17.4491 54.8125 17.4491 54.8125C18.3231 54.48 21.9023 53.8103 24.7594 49.3144C25.1916 48.6304 26.0585 48.3644 26.7591 48.7682C27.4669 49.1719 27.7091 50.0673 27.3054 50.7703C25.3888 54.1309 21.641 56.646 19.076 57.2588C17.7056 57.5842 16.0906 56.6769 15.7866 55.924M20.5841 60.3249C19.6769 59.8452 19.4085 58.9664 19.9856 58.7764C23.3866 57.6768 27.1059 54.8387 28.9109 52.1668C29.1355 51.861 29.4698 51.6541 29.8436 51.5895C30.2175 51.5248 30.6019 51.6074 30.9161 51.82C31.2304 52.0326 31.4501 52.3586 31.5292 52.7297C31.6084 53.1007 31.5407 53.488 31.3405 53.8103C29.2196 57.007 27.0584 58.622 23.5291 60.1515C22.8594 60.4437 21.4344 60.7762 20.5841 60.3249ZM24.9304 61.6383C27.1581 60.617 30.8679 58.5033 33.0196 54.898C33.229 54.5849 33.5506 54.364 33.9181 54.2811C34.2856 54.1981 34.6709 54.2594 34.9945 54.4523C35.3181 54.6452 35.5553 54.9549 35.6571 55.3176C35.759 55.6803 35.7177 56.0683 35.5419 56.4014C33.8081 59.3084 31.3975 61.6074 27.721 62.9018C25.935 63.5383 24.1941 61.9827 24.9328 61.6383M11.2575 49.4949C6.31037 43.6643 5.43875 36.0524 6.70937 28.5118C6.99912 26.778 7.63563 25.6974 8.265 25.7022C9.07725 25.7164 9.861 28.5047 9.6235 30.0199C8.55475 36.829 10.526 43.5099 14.7891 48.7064C15.0456 49.0199 14.6823 50.0839 13.775 50.4805C12.8654 50.8724 11.8512 50.1955 11.2575 49.4949Z" fill="#717171"/>
<path d="M15.0266 46.2127C12.7893 44.1108 10.9368 37.5321 10.9297 34.4018C10.9297 33.5896 10.9368 32.4187 11.7491 32.4187C11.7491 32.4187 13.5659 32.6966 13.8699 34.3947C14.3022 36.841 15.6559 42.4602 17.9122 45.3031C18.4181 45.9396 16.5537 47.6425 15.0266 46.2127Z" fill="#717171"/>
<path d="M39.4438 65.3718C36.8598 65.5024 32.8935 64.9633 31.592 63.182C31.1123 62.5265 31.972 61.909 32.7558 62.118C37.482 63.3934 40.7548 64.1368 46.792 61.2037C48.0152 60.6099 49.3689 61.2322 48.7633 62.0872C47.9154 63.2937 44.0845 65.1651 39.4438 65.3718Z" fill="#5A595A"/>
<path d="M34.5989 60.0471C34.1405 59.375 35.5014 58.2516 36.3089 58.3846C37.5843 58.5865 38.4702 58.8121 39.3608 58.8477C40.2728 58.8834 41.3962 58.5509 41.7405 58.5509C42.5552 58.5509 44.5027 59.3512 44.0039 59.9925C42.4602 61.9756 36.0405 62.1537 34.5989 60.0447" fill="#5A595A"/>
<path d="M51.3475 26.4646C50.9639 26.5286 50.5706 26.4375 50.2542 26.2115C49.9377 25.9854 49.724 25.6429 49.6601 25.2593C49.5962 24.8757 49.6872 24.4824 49.9133 24.166C50.1393 23.8495 50.4818 23.6358 50.8654 23.5719C54.3638 22.8119 58.9238 20.2041 61.5838 16.0194C62.2203 15.0148 64.1963 16.8981 63.1323 18.4894C59.9403 23.2916 55.7532 25.5194 51.49 26.4409L51.3475 26.4646Z" fill="#717171"/>
<path d="M50.3336 31.7774C49.9521 31.8221 49.5682 31.7161 49.2639 31.4818C48.9595 31.2475 48.7587 30.9036 48.7043 30.5234C48.65 30.1377 48.7508 29.7462 48.9844 29.4346C49.2181 29.1231 49.5657 28.9167 49.9512 28.8609C55.7058 28.0367 61.9924 23.6477 64.1062 19.254C64.4577 18.5249 66.8849 20.679 65.1512 23.0849C62.0589 27.367 55.9908 30.9627 50.3739 31.7655C50.3581 31.775 50.3439 31.779 50.3312 31.7774" fill="#717171"/>
<path d="M50.8605 36.4445C50.3903 36.4999 49.9311 36.5371 49.483 36.5561C49.0936 36.5722 48.7136 36.4332 48.4265 36.1697C48.1393 35.9061 47.9684 35.5395 47.9511 35.1501C47.9416 34.9571 47.9705 34.7642 48.0363 34.5825C48.102 34.4008 48.2033 34.2341 48.3342 34.0919C48.465 33.9498 48.6229 33.8351 48.7985 33.7546C48.9741 33.6741 49.164 33.6293 49.3571 33.6229C55.2424 33.3759 63.7971 29.4192 66.4524 24.4982C66.8371 23.7857 69.2953 25.8044 67.2053 28.4526C65.6378 30.4428 63.1678 32.0673 60.3415 33.4876C57.2778 35.0313 53.834 36.0953 50.8605 36.4445ZM55.5084 40.4582C55.129 40.5087 54.7462 40.5286 54.3636 40.5176C53.9747 40.5081 53.6054 40.3446 53.337 40.0628C53.0687 39.7811 52.9232 39.4043 52.9327 39.0154C52.9421 38.6264 53.1057 38.2572 53.3874 37.9888C53.6691 37.7205 54.0459 37.575 54.4349 37.5844C57.1471 37.6438 64.474 34.7938 67.5853 29.9085C68.0246 29.2245 69.6468 31.7776 67.894 33.7726C64.1083 38.0903 59.0899 40.0378 55.5084 40.4582ZM44.1868 34.6228C44.0037 34.6234 43.8223 34.5887 43.6524 34.5207C43.2943 34.3736 43.0072 34.0935 42.8513 33.7392C42.6954 33.385 42.6829 32.984 42.8164 32.6207C45.8374 23.7572 46.8943 13.3072 43.0943 3.68132C42.7974 2.92607 45.6949 2.82632 46.462 5.07782C50.072 15.7297 48.9843 24.3509 45.5524 33.6847C45.448 33.9619 45.2611 34.2005 45.0169 34.3682C44.7727 34.536 44.483 34.6248 44.1868 34.6228Z" fill="#717171"/>
<path d="M55.2664 17.701C54.5136 16.7557 51.6279 14.4757 50.5093 14.0838C49.7446 13.8107 49.4786 11.1745 50.2908 11.1745C52.9627 11.1697 56.6273 13.8107 57.7174 16.3401C58.5249 18.2116 56.8102 19.6295 55.2664 17.701ZM58.9952 15.326C56.3661 11.811 54.2523 9.50009 49.3836 7.79009C48.2602 7.39346 47.1986 6.01597 47.8802 5.57659C49.1437 4.75722 51.5021 5.75472 52.1599 6.06822C54.7368 7.29847 57.1237 8.61659 59.1329 10.9488C60.2658 12.267 61.5958 15.0172 61.0567 15.6157C60.2373 16.5253 59.2873 15.7107 58.9952 15.326ZM59.7314 44.5028C59.3039 43.8141 61.6861 42.8213 61.8998 40.3038C61.9711 39.4963 64.4292 38.5463 64.4814 39.3538C64.6833 42.5007 63.5718 43.6478 62.3392 44.5432C60.9902 45.5122 60.0046 44.9517 59.7314 44.5028ZM64.6239 46.6498C63.5243 46.4028 63.9661 45.2201 64.4767 44.5907C66.4242 42.2038 66.6023 40.9285 66.4004 38.3278C66.2983 37.0453 67.3504 35.8982 67.8492 36.5323C68.4952 37.3636 68.9821 39.7932 68.5189 41.7882C67.4264 46.5335 64.9683 46.7282 64.6239 46.6498ZM53.4923 19.0832C53.683 19.3051 53.8261 19.5638 53.9127 19.8432C53.9911 20.1282 53.9554 20.456 53.7654 20.6745C53.6263 20.814 53.4597 20.9232 53.2762 20.9951C52.9474 21.1718 52.5957 21.3021 52.2312 21.3822C51.8638 21.4624 51.4797 21.3941 51.1624 21.1922C50.7824 20.9191 50.6281 20.4322 50.5283 19.981C50.3583 19.2444 50.2471 18.4955 50.1958 17.7413C50.169 17.5607 50.1912 17.3762 50.2599 17.207C50.7658 16.257 53.1479 18.651 53.4899 19.0832" fill="#5A595A"/>
<path d="M55.2664 58.2588C51.7751 57.6461 48.272 56.2828 44.8472 54.7248C44.0564 54.3448 43.2964 53.9482 42.5364 53.5444C41.2776 54.2569 39.9239 54.8317 38.5107 55.2592C41.4012 56.9001 44.4667 58.2114 47.6497 59.1684C51.5495 60.3322 53.1479 60.1184 53.478 60.0709C54.7605 59.8738 56.062 58.4203 55.2664 58.2588Z" fill="#717171"/>
<path d="M11.4311 21.5483C11.0439 20.8358 10.4692 19.0664 10.4692 19.0664C9.44794 18.9405 8.60957 20.2586 8.98482 22.4983C9.20332 23.7855 15.0173 38.4345 32.2004 51.1693C34.2129 52.6667 36.3182 54.035 38.5037 55.2661C38.5037 55.2661 39.8717 56.1686 41.7337 55.2068C43.3154 54.3921 42.5293 53.5443 42.5293 53.5443C28.6664 46.2411 19.1736 35.7674 11.4311 21.5483Z" fill="#959595"/>
<path d="M59.1685 55.0358C54.997 53.7157 50.93 52.0858 47.0013 50.1599C46.2097 50.9912 45.3468 51.7456 44.4126 52.4233C45.2375 52.884 46.0569 53.3305 46.8707 53.7628C49.431 55.1284 59.6648 59.5839 59.1685 55.0358Z" fill="#717171"/>
<path d="M46.9966 50.16C33.1028 43.2772 21.1423 32.4947 13.5898 14.2927C11.602 14.7321 11.8086 17.0643 12.0936 17.8243C18.8457 35.7865 32.5186 45.7544 44.4078 52.4234C44.4078 52.4234 46.2841 53.4541 47.5238 51.87C48.2672 50.9152 46.9966 50.16 46.9966 50.16Z" fill="#959595"/>
<path d="M62.1538 51.2051C57.8796 49.9745 53.7521 48.2823 49.8442 46.1582C49.3604 47.098 48.7929 47.9923 48.1484 48.8301C51.1884 50.3738 54.3994 51.6801 57.7719 52.661C62.0351 53.8888 62.9566 51.3428 62.1538 51.2051Z" fill="#717171"/>
<path d="M17.2424 10.5878C16.7555 9.55945 14.7011 11.1222 15.0574 12.7419C17.2732 20.8051 27.5024 38.9501 48.1482 48.8301C48.1482 48.8301 49.7989 49.5545 50.4282 48.1769C51.0552 46.7947 49.8511 46.1582 49.8511 46.1582C28.1626 34.6228 19.9261 18.0976 17.2424 10.5878Z" fill="#959595"/>
<path d="M65.094 47.4951C60.1302 45.6664 55.6937 43.688 51.6681 41.4626C51.6394 41.6901 51.5998 41.9159 51.5494 42.1395C51.343 43.0199 51.0691 43.883 50.73 44.7211C54.3776 46.5796 58.1771 48.1234 62.0872 49.3358C65.341 50.243 65.8516 47.7849 65.0916 47.4928" fill="#717171"/>
<path d="M51.6681 41.4627C36.9906 33.3924 29.5759 24.1727 21.3988 8.25307C20.4013 6.64995 17.9716 8.1177 18.9169 9.82057C26.125 25.4552 33.82 35.1571 50.73 44.7283C50.73 44.7283 52.0244 45.2318 52.5231 43.7237C52.839 42.7737 52.5421 41.9377 51.6681 41.4627Z" fill="#959595"/>
<path d="M41.8712 73.625C40.2277 73.625 38.5581 73.5846 36.8909 73.4872C26.6 72.9172 13.7512 69.3784 9.86811 62.9375C8.64974 60.9235 4.95186 54.7912 12.4996 42.3818C16.7319 35.4231 26.904 20.5556 24.1181 6.35308C24.1181 6.35308 23.7334 4.98745 24.9494 4.47208C26.7472 3.71208 27.0394 5.25583 27.0394 5.25583C30.5971 21.8262 19.969 36.9075 15.5206 44.2177C9.75649 53.6987 11.2622 58.3965 12.8962 61.104C14.7844 64.2247 22.7834 69.16 37.0856 69.9484C55.0644 70.9412 66.0654 66.4453 67.1959 64.8375C67.2362 64.2318 66.8444 63.5193 60.0994 63.3768C58.2279 63.3365 58.4012 60.6028 59.3394 60.4983C62.0825 60.1753 67.2434 60.1753 69.6065 61.8877C70.7987 62.7522 71.2975 64.0299 70.8296 65.5143C69.4212 69.9603 56.8979 73.625 41.8712 73.625Z" fill="#BAB8B9"/>
</svg>
