<svg width="88" height="88" viewBox="0 0 88 88" fill="none" xmlns="http://www.w3.org/2000/svg">
<path fill-rule="evenodd" clip-rule="evenodd" d="M44.0002 10.0833C25.2745 10.0833 10.0835 25.3036 10.0835 44.0952C10.0835 61.5559 23.2065 75.9402 40.0878 77.8836C41.7818 78.0779 43.5968 77.3702 45.0488 75.9146C45.687 75.2753 46.0454 74.4089 46.0454 73.5056C46.0454 72.6023 45.687 71.7359 45.0488 71.0966C43.9048 69.9526 42.7572 68.4199 42.1302 66.6856C41.4885 64.9072 41.3272 62.6743 42.6325 60.5989C43.8168 58.7179 45.5915 57.7096 47.4542 57.2182C49.2508 56.7489 51.2345 56.7196 53.1448 56.8369C55.154 56.9839 57.1573 57.2028 59.1508 57.4933C61.1932 57.7573 63.1842 58.0029 65.1128 58.0946C69.0508 58.2816 72.0868 57.7866 74.1585 56.0926C76.1458 54.4683 77.9168 51.1756 77.9168 44.0952C77.9168 25.3036 62.7258 10.0833 44.0002 10.0833ZM4.5835 44.0952C4.5835 22.2786 22.2238 4.58325 44.0002 4.58325C65.7765 4.58325 83.4168 22.2786 83.4168 44.0952C83.4168 51.9603 81.4478 57.2366 77.6418 60.3496C73.9238 63.3892 69.1132 63.7926 64.8488 63.5872C62.5642 63.452 60.2864 63.2196 58.0215 62.8906C56.1148 62.6449 54.3915 62.4212 52.8148 62.3259C51.1025 62.2232 49.8045 62.2892 48.8548 62.5386C47.9748 62.7696 47.5495 63.1143 47.2892 63.5286C47.1462 63.7559 47.0472 64.1079 47.3038 64.8156C47.5752 65.5709 48.1692 66.4362 48.9428 67.2136C50.6087 68.8839 51.5442 71.1466 51.5442 73.5056C51.5442 75.8646 50.6087 78.1273 48.9428 79.7976C46.5595 82.1882 43.1495 83.7723 39.4572 83.3469C19.8222 81.0882 4.5835 64.3719 4.5835 44.0952ZM35.1452 22.9166C34.4158 22.9166 33.7163 23.2063 33.2006 23.722C32.6849 24.2378 32.3952 24.9372 32.3952 25.6666C32.3952 26.3959 32.6849 27.0954 33.2006 27.6111C33.7163 28.1269 34.4158 28.4166 35.1452 28.4166C35.8745 28.4166 36.574 28.1269 37.0897 27.6111C37.6054 27.0954 37.8952 26.3959 37.8952 25.6666C37.8952 24.9372 37.6054 24.2378 37.0897 23.722C36.574 23.2063 35.8745 22.9166 35.1452 22.9166ZM26.8952 25.6666C26.8952 23.4785 27.7644 21.3801 29.3115 19.833C30.8587 18.2858 32.9571 17.4166 35.1452 17.4166C37.3332 17.4166 39.4316 18.2858 40.9788 19.833C42.526 21.3801 43.3952 23.4785 43.3952 25.6666C43.3952 27.8546 42.526 29.953 40.9788 31.5002C39.4316 33.0474 37.3332 33.9166 35.1452 33.9166C32.9571 33.9166 30.8587 33.0474 29.3115 31.5002C27.7644 29.953 26.8952 27.8546 26.8952 25.6666ZM53.1668 22.9166C52.4375 22.9166 51.738 23.2063 51.2223 23.722C50.7066 24.2378 50.4168 24.9372 50.4168 25.6666C50.4168 26.3959 50.7066 27.0954 51.2223 27.6111C51.738 28.1269 52.4375 28.4166 53.1668 28.4166C53.8962 28.4166 54.5956 28.1269 55.1114 27.6111C55.6271 27.0954 55.9168 26.3959 55.9168 25.6666C55.9168 24.9372 55.6271 24.2378 55.1114 23.722C54.5956 23.2063 53.8962 22.9166 53.1668 22.9166ZM44.9168 25.6666C44.9168 23.4785 45.786 21.3801 47.3332 19.833C48.8804 18.2858 50.9788 17.4166 53.1668 17.4166C55.3549 17.4166 57.4533 18.2858 59.0005 19.833C60.5476 21.3801 61.4168 23.4785 61.4168 25.6666C61.4168 27.8546 60.5476 29.953 59.0005 31.5002C57.4533 33.0474 55.3549 33.9166 53.1668 33.9166C50.9788 33.9166 48.8804 33.0474 47.3332 31.5002C45.786 29.953 44.9168 27.8546 44.9168 25.6666ZM23.8335 39.4166C23.1042 39.4166 22.4047 39.7063 21.889 40.222C21.3732 40.7378 21.0835 41.4372 21.0835 42.1666C21.0835 42.8959 21.3732 43.5954 21.889 44.1111C22.4047 44.6269 23.1042 44.9166 23.8335 44.9166C24.5628 44.9166 25.2623 44.6269 25.778 44.1111C26.2938 43.5954 26.5835 42.8959 26.5835 42.1666C26.5835 41.4372 26.2938 40.7378 25.778 40.222C25.2623 39.7063 24.5628 39.4166 23.8335 39.4166ZM15.5835 42.1666C15.5835 39.9785 16.4527 37.8801 17.9999 36.333C19.547 34.7858 21.6455 33.9166 23.8335 33.9166C26.0215 33.9166 28.12 34.7858 29.6671 36.333C31.2143 37.8801 32.0835 39.9785 32.0835 42.1666C32.0835 44.3546 31.2143 46.453 29.6671 48.0002C28.12 49.5474 26.0215 50.4166 23.8335 50.4166C21.6455 50.4166 19.547 49.5474 17.9999 48.0002C16.4527 46.453 15.5835 44.3546 15.5835 42.1666ZM64.1668 39.4166C63.4375 39.4166 62.738 39.7063 62.2223 40.222C61.7066 40.7378 61.4168 41.4372 61.4168 42.1666C61.4168 42.8959 61.7066 43.5954 62.2223 44.1111C62.738 44.6269 63.4375 44.9166 64.1668 44.9166C64.8962 44.9166 65.5956 44.6269 66.1114 44.1111C66.6271 43.5954 66.9168 42.8959 66.9168 42.1666C66.9168 41.4372 66.6271 40.7378 66.1114 40.222C65.5956 39.7063 64.8962 39.4166 64.1668 39.4166ZM55.9168 42.1666C55.9168 41.0832 56.1302 40.0104 56.5448 39.0094C56.9594 38.0085 57.5671 37.099 58.3332 36.333C59.0993 35.5669 60.0088 34.9592 61.0097 34.5446C62.0106 34.13 63.0834 33.9166 64.1668 33.9166C65.2502 33.9166 66.323 34.13 67.324 34.5446C68.3249 34.9592 69.2344 35.5669 70.0005 36.333C70.7665 37.099 71.3742 38.0085 71.7888 39.0094C72.2034 40.0104 72.4168 41.0832 72.4168 42.1666C72.4168 44.3546 71.5476 46.453 70.0005 48.0002C68.4533 49.5474 66.3549 50.4166 64.1668 50.4166C61.9788 50.4166 59.8804 49.5474 58.3332 48.0002C56.786 46.453 55.9168 44.3546 55.9168 42.1666Z" fill="black"/>
</svg>
