<svg width="88" height="88" viewBox="0 0 88 88" fill="none" xmlns="http://www.w3.org/2000/svg">
<path d="M63.2685 5.95833C63.9171 5.23389 64.827 4.79677 65.7979 4.74314C66.7688 4.6895 67.7213 5.02374 68.4458 5.67233C72.2942 9.10851 75.3724 13.3196 77.4786 18.0293C79.5848 22.739 80.6713 27.8408 80.6668 33C80.6668 51.667 66.7188 67.078 48.6751 69.3733L47.6668 69.4833V73.3333H58.6668C59.6014 73.3344 60.5003 73.6922 61.1798 74.3338C61.8594 74.9753 62.2683 75.8522 62.3231 76.7851C62.3779 77.7181 62.0743 78.6367 61.4745 79.3534C60.8747 80.07 60.0238 80.5306 59.0958 80.641L58.6668 80.6667H29.3335C28.3989 80.6656 27.5 80.3078 26.8205 79.6662C26.1409 79.0247 25.732 78.1478 25.6772 77.2149C25.6224 76.2819 25.926 75.3633 26.5258 74.6466C27.1256 73.9299 27.9765 73.4694 28.9045 73.359L29.3335 73.3333H40.3335V69.4833C34.9314 68.9411 29.7172 67.2059 25.0674 64.4032C20.4176 61.6005 16.4482 57.8002 13.4458 53.2767C12.9076 52.4666 12.7131 51.4759 12.9053 50.5225C13.0975 49.5691 13.6606 48.7311 14.4707 48.1928C15.2807 47.6546 16.2714 47.4602 17.2248 47.6524C18.1782 47.8445 19.0162 48.4076 19.5545 49.2177C22.1255 53.0923 25.5808 56.3003 29.6354 58.5768C33.6901 60.8534 38.2278 62.1335 42.8745 62.3113L44.0405 62.3333C49.9778 62.3251 55.7728 60.5152 60.6596 57.1431C65.5464 53.771 69.2948 48.9953 71.4094 43.4473C73.524 37.8993 73.9053 31.8402 72.5028 26.0709C71.1003 20.3016 67.98 15.0937 63.5545 11.1357C62.83 10.487 62.3929 9.57715 62.3393 8.60623C62.2857 7.6353 62.6199 6.68283 63.2685 5.95833ZM44.0002 7.33333C50.8074 7.33333 57.3358 10.0375 62.1492 14.8509C66.9627 19.6644 69.6668 26.1928 69.6668 33C69.6668 39.8072 66.9627 46.3356 62.1492 51.1491C57.3358 55.9625 50.8074 58.6667 44.0002 58.6667C37.1929 58.6667 30.6645 55.9625 25.8511 51.1491C21.0376 46.3356 18.3335 39.8072 18.3335 33C18.3335 26.1928 21.0376 19.6644 25.8511 14.8509C30.6645 10.0375 37.1929 7.33333 44.0002 7.33333ZM44.0002 14.6667C39.1378 14.6667 34.4747 16.5982 31.0365 20.0364C27.5984 23.4745 25.6668 28.1377 25.6668 33C25.6668 37.8623 27.5984 42.5255 31.0365 45.9636C34.4747 49.4018 39.1378 51.3333 44.0002 51.3333C48.8625 51.3333 53.5256 49.4018 56.9638 45.9636C60.4019 42.5255 62.3335 37.8623 62.3335 33C62.3335 28.1377 60.4019 23.4745 56.9638 20.0364C53.5256 16.5982 48.8625 14.6667 44.0002 14.6667Z" fill="black"/>
</svg>
