<svg width="352" height="207" viewBox="0 0 352 207" fill="none" xmlns="http://www.w3.org/2000/svg">
<path d="M92.0223 0C101.718 0 110.243 0.751361 117.598 2.25408C125.12 3.58984 132.141 5.84392 138.66 9.01634C139.83 9.51725 140.583 10.1016 140.917 10.7695C141.251 11.2704 141.502 12.5227 141.669 14.5263L144.929 45.833C144.929 46.3339 144.427 46.6679 143.424 46.8348C142.589 47.0018 142.087 46.7514 141.92 46.0835C133.395 18.1996 116.177 4.25772 90.2671 4.25772C77.0614 4.25772 65.3601 7.34665 55.1632 13.5245C44.9664 19.7024 37.0262 28.4682 31.3428 39.8221C25.8264 51.176 23.0683 64.4501 23.0683 79.6443C23.0683 94.5045 26.0772 107.946 32.095 119.967C38.2799 131.822 46.5544 141.172 56.9184 148.018C67.4496 154.697 78.9837 158.036 91.5208 158.036C104.559 158.036 115.258 154.78 123.616 148.269C131.974 141.59 138.744 131.321 143.926 117.463C144.093 117.129 144.511 116.962 145.18 116.962C145.514 116.962 145.848 117.129 146.183 117.463C146.684 117.63 146.935 117.797 146.935 117.964L144.177 146.515C144.009 148.519 143.759 149.771 143.424 150.272C143.09 150.773 142.254 151.358 140.917 152.025C132.559 155.866 124.535 158.537 116.846 160.04C109.156 161.71 100.715 162.544 91.5208 162.544C73.8017 162.544 58.005 159.122 44.1306 152.276C30.2562 145.263 19.3907 135.579 11.5341 123.223C3.84471 110.868 0 96.6751 0 80.6461C0 64.951 3.92829 51.0091 11.7849 38.8203C19.8086 26.4646 30.8413 16.9474 44.8828 10.2686C58.9244 3.42287 74.6375 0 92.0223 0Z" fill="#C9A66B"/>
<path d="M207.573 205.998C207.405 206.666 206.486 207 204.814 207C203.143 207 202.223 206.666 202.056 205.998L139.12 70.5027C135.944 63.49 132.935 58.8149 130.093 56.4773C127.419 53.9728 123.574 52.7205 118.559 52.7205C118.058 52.7205 117.807 52.2196 117.807 51.2178C117.807 50.216 118.058 49.7151 118.559 49.7151L126.332 49.9655C130.678 50.2995 134.774 50.4664 138.619 50.4664C146.141 50.4664 153.579 50.2995 160.935 49.9655C163.275 49.7986 166.451 49.7151 170.463 49.7151C170.964 49.7151 171.215 50.216 171.215 51.2178C171.215 52.2196 170.964 52.7205 170.463 52.7205C165.615 52.7205 162.105 53.2214 159.932 54.2232C157.759 55.225 156.672 57.1452 156.672 59.9837C156.672 62.3212 157.842 66.078 160.182 71.2541L213.34 184.71L203.811 198.485L235.405 118.339L239.417 124.1L207.573 205.998ZM351.248 49.7151C351.749 49.7151 352 50.216 352 51.2178C352 52.2196 351.749 52.7205 351.248 52.7205C339.379 52.7205 330.353 60.3176 324.168 75.5118L273.016 205.998C272.849 206.666 271.93 207 270.258 207C268.586 207 267.667 206.666 267.5 205.998L204.564 70.5027C201.722 64.3249 198.797 59.8167 195.788 56.9782C192.946 54.1397 189.436 52.7205 185.257 52.7205C184.755 52.7205 184.504 52.2196 184.504 51.2178C184.504 50.216 184.755 49.7151 185.257 49.7151L193.03 49.9655C197.041 50.2995 200.719 50.4664 204.062 50.4664C210.414 50.4664 216.265 50.2995 221.614 49.9655C223.286 49.7986 225.542 49.7151 228.384 49.7151C228.886 49.7151 229.136 50.216 229.136 51.2178C229.136 52.2196 228.886 52.7205 228.384 52.7205C225.542 52.7205 223.453 53.0544 222.116 53.7223C220.945 54.2232 220.36 55.2251 220.36 56.7278C220.36 59.0653 222.116 63.9074 225.626 71.2541L278.783 184.71L269.255 198.485L317.648 75.5118C319.153 71.5045 319.905 68.0817 319.905 65.2432C319.905 61.2359 318.401 58.147 315.392 55.9764C312.55 53.8058 308.287 52.7205 302.604 52.7205C302.102 52.7205 301.852 52.2196 301.852 51.2178C301.852 50.216 302.102 49.7151 302.604 49.7151L313.386 49.9655C319.069 50.2995 324.251 50.4664 328.932 50.4664C332.442 50.4664 336.37 50.2995 340.717 49.9655L351.248 49.7151ZM253.96 74.2595C256.3 68.2486 257.47 63.657 257.47 60.4846C257.47 55.3085 254.378 52.7205 248.193 52.7205C247.858 52.7205 247.691 52.2196 247.691 51.2178C247.691 50.216 247.858 49.7151 248.193 49.7151L253.208 49.9655C256.551 50.2995 260.396 50.4664 264.742 50.4664C267.751 50.4664 271.428 50.2995 275.774 49.9655L285.804 49.7151C286.138 49.7151 286.306 50.216 286.306 51.2178C286.306 52.2196 286.138 52.7205 285.804 52.7205C280.121 52.7205 275.189 54.4737 271.01 57.98C266.831 61.4864 263.154 67.3303 259.978 75.5118L240.671 124.1L236.659 118.339L253.96 74.2595Z" fill="#C9A66B"/>
</svg>
